<?xml version="1.0" encoding="UTF-8" standalone="no"?>
<svg
   xmlns:dc="http://purl.org/dc/elements/1.1/"
   xmlns:cc="http://creativecommons.org/ns#"
   xmlns:rdf="http://www.w3.org/1999/02/22-rdf-syntax-ns#"
   xmlns:svg="http://www.w3.org/2000/svg"
   xmlns="http://www.w3.org/2000/svg"
   viewBox="0 0 1122.52 793.70135"
   height="793.70135"
   width="1122.52"
   xml:space="preserve"
   id="svg2"
   version="1.1"><metadata
     id="metadata8"><rdf:RDF><cc:Work
         rdf:about=""><dc:format>image/svg+xml</dc:format><dc:type
           rdf:resource="http://purl.org/dc/dcmitype/StillImage" /></cc:Work></rdf:RDF></metadata><defs
     id="defs6"><clipPath
       id="clipPath18"
       clipPathUnits="userSpaceOnUse"><path
         id="path16"
         d="M 0,595.276 H 841.89 V 0 H 0 Z" /></clipPath></defs><g
     transform="matrix(1.3333333,0,0,-1.3333333,0,793.70133)"
     id="g10"><g
       id="g12"><g
         clip-path="url(#clipPath18)"
         id="g14"><g
           transform="translate(396.8013,68.3742)"
           id="g20"><path
             id="path22"
             style="fill:#ffffff;fill-opacity:1;fill-rule:nonzero;stroke:none"
             d="m 0,0 c 44.671,0 145.431,45.669 179.572,45.669 12.083,0 48.33,-7.593 48.33,-14.41 0,-3.824 -1.33,-4.572 -1.33,-9.311 0,-5.653 15.463,-17.625 23.111,-30.427 7.649,-12.803 15.463,-14.133 19.121,-14.133 3.658,0 9.81,0.997 15.962,14.133 6.152,13.135 8.314,13.8 8.314,22.28 v 161.131 c 0,3.159 -1.431,6.145 -3.904,8.112 -11.634,9.258 -48.794,34.77 -105.004,34.77 -103.475,0 -103.254,-47.774 -187.941,-47.996 H -72.24 c -5.798,0 -11.316,2.471 -15.174,6.799 -7.739,8.683 -21.785,23.992 -34.767,35.794 -19.204,17.458 -32.506,33.836 -44.062,34.751 -11.555,0.914 -19.038,10.475 -25.522,10.475 -6.485,0 -5.238,-2.328 -12.886,-2.328 -7.649,0 -18.539,6.068 -25.024,6.068 -6.485,0 -12.304,-6.317 -12.304,-13.135 0,-3.616 0.748,-3.907 0.748,-7.482 0,-6.152 -3.907,-10.974 -3.907,-14.299 0,-9.811 25.772,-38.741 38.409,-57.363 12.636,-18.622 39.407,-50.572 46.888,-56.865 C -75.309,41.113 -36.801,0 0,0 m -2.035,239.292 c 4.81,-10.17 30.741,-31.791 40.781,-44.91 2.37,-3.101 0.71,-7.49 -3.201,-7.49 h -115.43 c -3.9,0 -5.57,4.389 -3.199,7.49 10.039,13.119 35.969,34.74 40.779,44.91 1.62,3.399 -0.84,7.029 -4.26,5.439 -10.44,-4.87 -25.05,-10.62 -35.789,-10.62 -18.631,0 -70.841,14.63 -70.841,63.181 0,53.317 95.296,150.889 123.349,178.458 4.267,4.193 11.096,4.193 15.362,0 28.052,-27.57 123.339,-125.142 123.339,-178.458 0,-48.551 -52.21,-63.181 -70.83,-63.181 -10.75,0 -25.359,5.75 -35.8,10.62 -3.42,1.59 -5.88,-2.04 -4.26,-5.439" /></g></g></g></g></svg>